<?xml version="1.0" encoding="UTF-8"?>
<!DOCTYPE svg PUBLIC "-//W3C//DTD SVG 1.1//EN" "http://www.w3.org/Graphics/SVG/1.1/DTD/svg11.dtd">
<!-- Creator: CorelDRAW 2018 (64-Bit) -->
<svg xmlns="http://www.w3.org/2000/svg" xml:space="preserve" width="25.1081mm" height="25.0962mm" version="1.1" style="shape-rendering:geometricPrecision; text-rendering:geometricPrecision; image-rendering:optimizeQuality; fill-rule:evenodd; clip-rule:evenodd"
viewBox="0 0 202.01 201.91"
 xmlns:xlink="http://www.w3.org/1999/xlink">
 <defs>
  <style type="text/css">
   <![CDATA[
    .fil0 {fill:#CACACA;fill-rule:nonzero}
   ]]>
  </style>
 </defs>
 <g id="Layer_x0020_1">
  <metadata id="CorelCorpID_0Corel-Layer"/>
  <g id="_1684982101056">
   <path class="fil0" d="M104.56 201.81c-14.8,0 -24.87,0.26 -34.93,-0.08 -9.02,-0.31 -18.11,-0.3 -26.96,-2.57 -11.39,-2.92 -21.23,-8.38 -28.85,-17.56 -7.47,-8.99 -11.2,-19.46 -12.48,-30.92 -0.96,-8.62 -1.3,-17.27 -1.31,-25.94 -0.01,-17.06 -0.11,-34.12 0.04,-51.18 0.08,-8.49 0.3,-17 1.61,-25.41 2.41,-15.54 9.54,-28.31 22.62,-37.34 7.88,-5.44 16.78,-8.4 26.27,-9.4 20.52,-2.17 41.12,-1.15 61.68,-1.36 8.78,-0.09 17.56,-0.04 26.33,0.37 9.34,0.43 18.61,1.16 27.5,4.51 9.74,3.68 17.76,9.57 23.94,17.93 6.64,8.99 9.92,19.27 10.75,30.26 1.98,26.19 0.96,52.43 0.91,78.65 -0.02,8.02 -0.28,16.1 -1.86,24.04 -2.31,11.65 -7.15,21.92 -15.91,30.21 -7.11,6.72 -15.49,10.88 -24.92,13.13 -5.73,1.37 -11.55,1.77 -17.42,2.13 -13.92,0.85 -27.84,0.36 -37.02,0.52zm78.7 -100.84l0 0c0.03,-12.41 0.19,-24.83 -0.35,-37.24 -0.27,-6.2 -0.59,-12.4 -2.38,-18.41 -1.85,-6.24 -4.95,-11.68 -9.77,-16.14 -6.75,-6.24 -15,-8.69 -23.84,-9.54 -9.46,-0.91 -18.98,-0.93 -28.48,-0.98 -16.22,-0.08 -32.44,-0.21 -48.65,0.25 -6.48,0.18 -12.97,0.3 -19.38,1.37 -9.21,1.55 -17.11,5.47 -22.96,12.95 -5.11,6.54 -7.07,14.23 -7.87,22.31 -0.78,7.8 -0.8,15.63 -0.89,23.45 -0.23,19.63 -0.29,39.26 0.29,58.88 0.17,5.68 0.55,11.37 1.91,16.96 1.93,7.88 5.83,14.49 12.14,19.58 5.94,4.78 12.99,6.93 20.4,7.85 7.66,0.96 15.4,0.99 23.1,1.03 20.08,0.1 40.15,0.34 60.23,-0.28 5.14,-0.16 10.28,-0.43 15.34,-1.39 8,-1.51 15.11,-4.7 20.72,-10.84 4.84,-5.3 7.42,-11.64 8.77,-18.56 1.61,-8.28 1.39,-16.7 1.63,-25.07 0.25,-8.72 0.06,-17.45 0.06,-26.18z"/>
   <path class="fil0" d="M100.7 152.88c-28.15,0.18 -51.92,-23.12 -51.72,-52.31 0.2,-28.55 23.38,-51.56 52.23,-51.53 28.56,0.03 51.59,23.28 51.7,51.88 0.11,28.67 -23.38,52.38 -52.21,51.96zm0.27 -18.56l0 0c18.35,-0.02 33.37,-14.98 33.27,-33.34 -0.09,-18.55 -14.62,-33.16 -33.3,-33.31 -18.35,-0.15 -33.49,15.09 -33.3,33.5 0.2,18.48 14.86,32.97 33.32,33.14z"/>
   <path class="fil0" d="M166.96 47.26c-0,6.8 -5.45,12.3 -12.2,12.29 -6.74,-0.01 -12.42,-5.6 -12.39,-12.21 0.03,-6.92 5.5,-12.42 12.31,-12.39 7.03,0.02 12.28,5.29 12.27,12.31z"/>
  </g>
 </g>
</svg>
