<?xml version="1.0" encoding="UTF-8"?>
<!DOCTYPE svg PUBLIC "-//W3C//DTD SVG 1.1//EN" "http://www.w3.org/Graphics/SVG/1.1/DTD/svg11.dtd">
<!-- Creator: CorelDRAW 2018 (64-Bit) -->
<svg xmlns="http://www.w3.org/2000/svg" xml:space="preserve" width="25.9036mm" height="20.7219mm" version="1.1" style="shape-rendering:geometricPrecision; text-rendering:geometricPrecision; image-rendering:optimizeQuality; fill-rule:evenodd; clip-rule:evenodd"
viewBox="0 0 116.52 93.21"
 xmlns:xlink="http://www.w3.org/1999/xlink">
 <defs>
  <style type="text/css">
   <![CDATA[
    .fil0 {fill:#CACACA;fill-rule:nonzero}
   ]]>
  </style>
 </defs>
 <g id="Layer_x0020_1">
  <metadata id="CorelCorpID_0Corel-Layer"/>
  <path class="fil0" d="M116.52 11.04c-4.28,1.87 -8.89,3.13 -13.73,3.7 4.94,-2.91 8.72,-7.52 10.52,-13.02 -4.62,2.7 -9.74,4.66 -15.19,5.72 -4.35,-4.57 -10.57,-7.43 -17.44,-7.43 -13.2,0 -23.9,10.54 -23.9,23.53 0,1.85 0.21,3.63 0.61,5.36 -19.86,-0.98 -37.48,-10.35 -49.27,-24.59 -2.05,3.47 -3.24,7.52 -3.24,11.83 0,8.16 4.23,15.36 10.64,19.58 -3.91,-0.12 -7.61,-1.18 -10.83,-2.94 0,0.1 0,0.2 0,0.29 0,3.01 0.59,5.88 1.64,8.53 2.92,7.38 9.49,12.95 17.54,14.55 -2.01,0.53 -4.12,0.82 -6.3,0.82 -1.53,0 -3.03,-0.15 -4.5,-0.43 3.05,9.35 11.87,16.15 22.33,16.34 -8.18,6.32 -18.48,10.08 -29.69,10.08 -1.93,0 -3.83,-0.11 -5.71,-0.33 10.59,6.67 23.16,10.57 36.65,10.57 37.37,0 60.33,-25.89 66.39,-52.75 1.07,-4.75 1.63,-9.53 1.63,-14.2 0,-1.01 -0.02,-2.04 -0.06,-3.04 4.67,-3.32 8.72,-7.46 11.92,-12.18z"/>
 </g>
</svg>
