<?xml version="1.0" encoding="UTF-8"?>
<!DOCTYPE svg PUBLIC "-//W3C//DTD SVG 1.1//EN" "http://www.w3.org/Graphics/SVG/1.1/DTD/svg11.dtd">
<!-- Creator: CorelDRAW 2018 (64-Bit) -->
<svg xmlns="http://www.w3.org/2000/svg" xml:space="preserve" width="25.9021mm" height="18.9947mm" version="1.1" style="shape-rendering:geometricPrecision; text-rendering:geometricPrecision; image-rendering:optimizeQuality; fill-rule:evenodd; clip-rule:evenodd"
viewBox="0 0 148.61 108.98"
 xmlns:xlink="http://www.w3.org/1999/xlink">
 <defs>
  <style type="text/css">
   <![CDATA[
    .fil0 {fill:#CACACA;fill-rule:nonzero}
   ]]>
  </style>
 </defs>
 <g id="Layer_x0020_1">
  <metadata id="CorelCorpID_0Corel-Layer"/>
  <path class="fil0" d="M147.12 23.51c0,0 -1.45,-10.69 -5.9,-15.39 -5.65,-6.16 -11.99,-6.2 -14.88,-6.56 -20.81,-1.56 -52,-1.56 -52,-1.56l-0.07 0c0,0 -31.21,0 -51.99,1.57 -2.9,0.35 -9.23,0.39 -14.89,6.56 -4.45,4.7 -5.9,15.39 -5.9,15.39 0,0 -1.49,12.53 -1.49,25.08l0 1.51 0 10.24c0,12.55 1.49,25.09 1.49,25.09 0,0 1.45,10.68 5.9,15.38 5.66,6.17 13.1,5.98 16.39,6.62 11.89,1.19 50.53,1.56 50.53,1.56 0,0 31.22,-0.06 52.03,-1.62 2.89,-0.36 9.23,-0.39 14.88,-6.57 4.45,-4.7 5.9,-15.38 5.9,-15.38 0,0 1.49,-12.54 1.49,-25.09l0 -9.59 0 -2.16c0,-12.54 -1.49,-25.08 -1.49,-25.08zm-48.01 29.4l0 0 -40.14 21.69 -0.01 -33.39 -0 -10.15 18.1 9.85 22.05 12z"/>
 </g>
</svg>
